<?xml version="1.0" standalone="no"?>
<!DOCTYPE svg PUBLIC "-//W3C//DTD SVG 20010904//EN"
 "http://www.w3.org/TR/2001/REC-SVG-20010904/DTD/svg10.dtd">
<svg version="1.0" xmlns="http://www.w3.org/2000/svg"
 width="700.000000pt" height="700.000000pt" viewBox="0 0 700.000000 700.000000"
 preserveAspectRatio="xMidYMid meet">
<metadata>
Created by potrace 1.11, written by Peter Selinger 2001-2013
</metadata>
<g transform="translate(0.000000,700.000000) scale(0.100000,-0.100000)"
fill="#000000" stroke="none">
<path d="M3350 6196 c-202 -69 -333 -245 -334 -450 0 -44 2 -92 4 -105 6 -28
57 4 -690 -437 l-424 -251 -51 40 c-162 129 -389 141 -564 30 -171 -109 -252
-298 -217 -508 12 -70 76 -185 138 -246 59 -59 154 -112 221 -124 l37 -7 0
-643 c0 -695 3 -655 -50 -655 -32 0 -153 -69 -198 -113 -109 -106 -159 -228
-154 -377 8 -256 229 -465 487 -461 33 1 69 3 80 5 86 17 149 45 211 92 l47
36 41 -21 c23 -11 61 -32 86 -47 108 -63 469 -270 511 -293 26 -14 149 -84
273 -156 173 -99 225 -133 220 -145 -17 -42 -12 -167 10 -240 105 -360 550
-473 811 -206 118 121 168 289 130 440 -9 32 -14 59 -13 60 13 5 144 79 596
338 l522 300 49 -44 c87 -78 194 -118 316 -118 88 1 143 13 220 50 158 77 265
244 267 417 3 151 -38 252 -148 365 -42 43 -168 118 -198 118 -9 0 -12 161
-12 652 1 570 3 652 16 656 62 19 147 71 199 124 64 63 125 171 138 245 42
244 -87 470 -317 554 -51 18 -85 24 -155 24 -49 -1 -106 -4 -125 -8 -62 -14
-156 -65 -210 -116 l-53 -49 -39 24 c-22 14 -55 34 -75 45 -20 11 -113 65
-208 119 -95 54 -187 107 -206 118 -19 11 -110 63 -204 117 -207 118 -213 122
-298 170 -38 21 -71 44 -74 51 -3 7 1 29 7 49 32 98 12 256 -46 359 -38 69
-129 156 -195 187 -100 49 -114 52 -214 55 -81 2 -112 -2 -165 -20z m-250
-898 c-78 -135 -263 -457 -330 -573 -72 -123 -387 -673 -422 -735 -57 -101
-641 -1115 -644 -1119 -2 -2 -4 284 -4 637 l0 641 64 31 c176 87 278 258 271
453 -2 42 -6 85 -10 96 -5 16 8 27 72 65 43 26 85 50 93 55 78 47 320 190 520
309 135 79 285 169 335 198 54 32 93 50 99 44 5 -5 -12 -46 -44 -102z m1256
-231 c253 -145 493 -283 536 -307 l76 -43 -3 -78 c-6 -180 72 -336 214 -427
58 -37 146 -74 155 -64 3 3 6 -10 7 -29 1 -42 1 -1237 0 -1261 -2 -57 -40 2
-312 481 -14 25 -177 309 -361 631 -185 322 -345 601 -355 620 -11 19 -107
186 -213 370 -218 380 -212 370 -207 370 3 0 211 -118 463 -263z m-856 188
c41 0 93 4 115 9 l40 8 125 -219 c69 -120 130 -227 137 -238 7 -11 15 -27 19
-35 4 -8 29 -51 54 -95 26 -44 59 -100 72 -125 14 -25 58 -101 98 -170 39 -69
82 -143 94 -165 13 -22 148 -258 301 -525 153 -267 320 -559 372 -650 51 -91
98 -172 103 -180 5 -8 25 -43 45 -77 l36 -63 -48 -62 c-27 -35 -56 -84 -66
-110 -10 -25 -25 -48 -35 -50 -24 -5 -2931 -3 -2935 3 -2 2 -18 34 -36 70 -17
36 -47 83 -66 104 -19 21 -35 39 -35 41 0 2 14 27 31 56 18 29 40 68 51 86 36
64 373 650 618 1077 136 237 260 453 275 480 15 28 36 62 46 77 11 14 19 28
19 30 0 3 48 87 106 189 59 101 115 198 124 215 10 17 57 100 105 183 l88 153
36 -9 c20 -4 70 -8 111 -8z m1475 -3004 c3 -13 5 -25 3 -26 -3 -3 -153 -90
-223 -130 -22 -12 -114 -65 -205 -117 -91 -52 -185 -106 -210 -120 -25 -14
-88 -50 -140 -80 -52 -30 -115 -67 -140 -80 -25 -14 -81 -46 -124 -71 l-79
-45 -31 29 c-105 100 -293 148 -436 112 -74 -18 -167 -66 -213 -109 l-37 -35
-223 127 c-122 70 -235 135 -252 144 -16 9 -93 53 -170 97 -77 44 -156 90
-175 101 -19 11 -91 52 -158 91 -68 39 -128 71 -133 71 -10 0 -11 15 -3 45 5
20 13 20 1474 20 l1469 0 6 -24z"/>
<path d="M2810 4012 c0 -5 8 -17 18 -28 14 -15 418 -512 464 -571 7 -9 -12
-38 -64 -100 -41 -48 -80 -97 -88 -109 -8 -11 -34 -43 -56 -70 -98 -115 -150
-180 -157 -191 -4 -7 -3 -31 2 -55 5 -24 12 -55 16 -70 l5 -28 138 0 137 1
235 291 c129 160 240 296 245 302 6 6 57 70 115 141 57 72 107 132 110 135 3
3 69 85 148 183 l143 177 -209 0 -209 0 -64 -77 c-35 -43 -68 -83 -74 -89 -5
-7 -41 -51 -80 -98 l-70 -87 -25 29 c-34 39 -70 82 -175 210 l-90 111 -207 0
c-115 0 -208 -3 -208 -7z"/>
<path d="M3778 3188 c-31 -40 -65 -82 -75 -93 -10 -11 -31 -37 -47 -58 -26
-34 -27 -39 -14 -55 8 -9 24 -28 36 -42 11 -14 44 -53 72 -87 l52 -63 204 0
c119 0 204 4 204 9 0 5 -6 16 -13 23 -7 7 -40 47 -72 88 -33 41 -62 77 -65 80
-3 3 -54 65 -113 138 -60 72 -109 132 -110 132 -1 0 -28 -33 -59 -72z"/>
<path d="M2553 2884 c-113 -56 -115 -230 -4 -292 145 -82 302 81 220 227 -40
71 -141 102 -216 65z"/>
</g>
</svg>
